<?xml version="1.0" standalone="no"?>
<!DOCTYPE svg PUBLIC "-//W3C//DTD SVG 20010904//EN"
 "http://www.w3.org/TR/2001/REC-SVG-20010904/DTD/svg10.dtd">
<svg version="1.0" xmlns="http://www.w3.org/2000/svg"
 width="500.000000pt" height="500.000000pt" viewBox="0 0 500.000000 500.000000"
 preserveAspectRatio="xMidYMid meet">
<metadata>
Created by potrace 1.14, written by Peter Selinger 2001-2017
</metadata>
<g transform="translate(0.000000,500.000000) scale(0.100000,-0.100000)"
fill="#000000" stroke="none">
<path d="M2370 4549 c-127 -15 -167 -23 -315 -63 -75 -21 -325 -144 -379 -187
-6 -5 -45 -35 -86 -68 -79 -62 -170 -153 -235 -236 -22 -27 -43 -51 -47 -53
-5 -2 -8 -8 -8 -14 0 -6 -10 -25 -23 -42 -13 -17 -30 -44 -39 -61 -8 -16 -31
-62 -51 -101 -47 -92 -92 -226 -119 -356 -17 -82 -22 -137 -22 -273 0 -93 4
-188 7 -210 4 -22 10 -52 12 -68 3 -15 13 -53 21 -85 9 -31 17 -65 17 -74 1
-10 6 -18 11 -18 5 0 7 -3 4 -6 -10 -9 101 -265 123 -284 3 -3 16 -24 29 -47
13 -24 27 -43 32 -43 4 0 8 -5 8 -11 0 -14 78 -109 153 -188 65 -67 217 -191
235 -191 6 0 12 -4 14 -8 3 -8 118 -77 168 -100 42 -19 105 -45 112 -46 3 -1
10 -4 14 -8 4 -5 18 -8 30 -8 13 0 26 -4 29 -10 3 -5 19 -10 34 -10 15 0 31
-3 35 -7 7 -8 13 -9 66 -18 19 -4 46 -8 60 -11 126 -24 381 -24 496 0 12 2 37
7 55 10 117 19 388 126 454 179 6 4 33 22 60 39 28 18 52 35 55 38 3 3 21 17
40 30 35 24 186 172 225 220 12 14 36 48 55 75 18 28 36 52 39 55 42 37 175
348 195 452 2 13 7 34 10 48 39 167 39 426 0 604 -31 140 -137 413 -165 424
-5 2 -9 8 -9 13 0 32 -136 207 -238 306 -79 77 -93 89 -188 157 -105 76 -332
185 -417 202 -10 2 -27 6 -37 9 -19 6 -25 7 -115 26 -104 21 -302 30 -405 18z
m210 -1165 c75 -44 89 -150 29 -213 -27 -28 -71 -47 -106 -44 -7 0 -22 1 -33
2 -25 1 -96 71 -98 97 -6 58 -1 94 15 111 6 7 13 16 15 21 1 4 16 17 32 28 35
25 100 25 146 -2z m-451 -73 c43 -43 73 -153 48 -177 -4 -4 -7 -15 -7 -25 0
-26 -71 -93 -112 -105 -182 -56 -323 167 -192 304 66 68 196 70 263 3z m1091
-114 c0 -5 4 -6 9 -3 12 8 59 -31 75 -62 28 -56 6 -132 -49 -168 -38 -25 -122
-19 -150 10 -65 69 -55 175 21 215 32 17 94 22 94 8z m-485 -141 c11 -2 38
-12 60 -22 22 -10 42 -18 45 -19 3 0 28 -11 55 -24 28 -12 94 -41 148 -62 85
-35 107 -40 165 -38 37 1 83 6 102 10 19 4 47 10 63 13 15 2 36 8 47 11 11 4
20 4 20 2 0 -12 -152 -119 -210 -148 -59 -30 -73 -33 -155 -32 -49 0 -118 4
-152 7 -71 7 -100 -1 -138 -40 -26 -26 -63 -96 -70 -133 -2 -9 -4 -16 -5 -16
-6 0 -11 -76 -15 -194 -6 -203 -11 -254 -33 -311 -3 -8 -6 -18 -7 -22 -2 -5
-4 -10 -5 -13 -1 -3 -3 -8 -5 -12 -5 -20 -27 -72 -45 -106 -11 -22 -20 -45
-20 -53 0 -25 -25 -14 -48 21 -12 19 -22 38 -21 41 0 4 -3 10 -8 13 -12 8 -73
109 -73 120 0 5 -3 11 -7 13 -8 3 -87 163 -89 177 0 3 -8 24 -17 45 -10 22
-20 51 -24 65 -3 14 -8 31 -12 36 -3 6 -6 15 -7 20 -1 6 -6 28 -12 50 -6 22
-14 54 -18 70 -8 33 -13 420 -6 447 3 15 16 17 81 16 62 -1 96 5 172 31 135
45 182 52 244 37z m-678 -155 c10 -5 22 -9 26 -9 4 0 20 -5 35 -11 l27 -11 -1
-198 c0 -175 4 -239 20 -307 20 -87 36 -146 49 -182 9 -22 13 -44 10 -47 -4
-3 -1 -6 5 -6 7 0 11 -3 10 -7 -1 -8 2 -18 33 -97 10 -27 19 -55 19 -62 0 -8
5 -14 12 -14 6 0 9 -3 5 -6 -3 -4 5 -28 19 -55 19 -39 21 -49 9 -49 -18 0
-169 72 -173 83 -2 4 -8 7 -13 7 -40 0 -279 203 -279 237 0 7 -3 13 -8 13 -8
0 -38 61 -34 73 1 4 -2 7 -8 7 -5 0 -10 5 -10 10 0 6 -8 29 -19 53 -30 67 -61
150 -66 176 -2 13 -7 26 -10 29 -4 5 -95 27 -145 36 -60 10 -160 69 -215 125
-66 68 -130 150 -123 157 3 2 25 0 49 -6 45 -11 51 -12 149 -26 66 -9 132 -10
180 -2 35 6 91 27 100 39 10 13 76 43 120 54 51 13 200 11 227 -4z m1464 -152
c-2 -8 -5 -27 -7 -44 -2 -28 -15 -92 -27 -140 -31 -118 -101 -265 -165 -345
-40 -50 -233 -244 -273 -275 -15 -11 -43 -33 -63 -49 -20 -16 -39 -27 -42 -24
-2 3 0 27 7 54 6 27 12 58 14 69 4 24 15 90 20 117 5 23 18 149 17 163 0 19
-33 180 -42 210 -5 17 -11 41 -14 55 -3 14 -9 40 -15 59 l-10 33 32 -7 c55
-13 190 -14 238 -1 25 7 74 31 108 54 35 23 67 42 71 42 5 0 21 5 37 12 15 6
33 12 40 14 6 1 19 6 29 12 23 13 50 8 45 -9z"/>
<path d="M2901 1529 c-48 -21 -91 -76 -95 -121 -2 -19 -5 -39 -8 -44 -6 -12
-3 -58 7 -113 6 -33 19 -56 50 -86 22 -23 48 -42 56 -43 88 -9 96 -8 139 15
62 33 88 88 94 201 1 24 -1 45 -6 48 -4 3 -8 15 -8 28 0 12 -5 27 -12 34 -7 7
-9 12 -5 12 16 0 -59 68 -83 75 -43 14 -90 12 -129 -6z m96 -58 c36 -3 69 -81
65 -156 -5 -93 -43 -137 -109 -128 -55 8 -81 60 -77 148 3 64 6 74 28 107 18
27 38 37 66 32 8 -1 20 -3 27 -3z"/>
<path d="M3443 1539 c-11 -4 -30 -20 -42 -36 -11 -15 -24 -32 -29 -38 -4 -5
-23 -31 -41 -57 -19 -27 -37 -48 -40 -48 -4 0 -6 41 -5 90 l1 90 -39 0 c-35 0
-38 -2 -39 -27 -3 -125 0 -374 6 -383 4 -6 21 -9 38 -7 32 3 32 4 34 65 1 46
6 66 22 83 12 13 21 26 21 31 0 4 7 8 15 8 8 0 14 -3 13 -7 -1 -5 4 -19 12
-33 8 -14 28 -52 46 -85 30 -58 32 -60 72 -61 23 -1 42 0 42 2 0 3 -26 55 -57
117 -32 62 -57 115 -55 120 1 4 -2 7 -8 7 -5 0 -10 7 -10 15 0 8 5 15 10 15 6
0 10 6 10 14 0 8 3 16 8 18 7 3 63 72 75 94 8 15 -32 23 -60 13z"/>
<path d="M1344 1333 l1 -208 130 -1 c72 -1 135 2 141 7 6 5 10 19 9 31 -2 28
-31 35 -132 31 l-71 -2 0 58 1 58 56 0 c31 1 62 1 69 2 6 1 12 14 12 31 0 32
2 32 -85 34 l-50 1 -1 48 c-1 53 -10 49 108 49 81 -1 91 5 80 51 -4 15 -19 17
-136 17 l-132 0 0 -207z"/>
<path d="M1689 1528 c-1 -7 -2 -100 -3 -206 -1 -178 0 -193 17 -198 10 -3 28
-3 40 0 20 5 22 11 22 86 l-1 80 38 0 c34 0 54 -14 57 -43 2 -15 54 -112 65
-119 6 -5 25 -7 43 -6 l31 2 -14 30 c-9 17 -28 57 -45 88 l-29 58 37 33 c32
30 36 39 36 81 0 57 -25 96 -74 113 -47 17 -219 17 -220 1z m203 -79 c20 -24
19 -49 -3 -71 -17 -18 -67 -29 -75 -17 -3 5 -14 4 -25 -1 -10 -6 -20 -9 -20
-8 -6 14 -4 114 3 119 4 3 29 4 56 2 32 -2 52 -10 64 -24z"/>
<path d="M2147 1523 c-3 -10 -17 -58 -32 -108 -15 -49 -28 -97 -30 -105 -2 -8
-8 -27 -14 -42 -6 -16 -8 -28 -5 -28 4 0 2 -6 -3 -12 -9 -12 -21 -48 -29 -88
-2 -11 5 -16 24 -18 37 -2 50 8 57 48 3 19 8 36 10 38 6 6 128 9 142 4 7 -2
11 -8 8 -12 -3 -5 -1 -11 5 -15 5 -3 10 -17 10 -30 0 -25 21 -37 55 -30 11 2
23 4 28 4 4 1 3 9 -2 19 -9 15 -22 58 -83 267 -37 129 -34 125 -88 125 -37 0
-49 -4 -53 -17z m76 -135 c31 -112 32 -108 -5 -109 -34 -1 -61 1 -66 6 -1 1 5
29 14 61 9 32 18 69 21 82 9 36 18 26 36 -40z"/>
<path d="M2429 1533 c-1 -11 -1 -385 0 -400 2 -18 188 -10 228 10 41 22 70 60
84 109 10 40 11 134 0 153 -3 6 -7 19 -8 30 -2 11 -10 25 -18 31 -8 6 -12 13
-10 16 3 3 -16 16 -42 30 -40 21 -64 25 -140 27 -51 2 -93 -1 -94 -6z m187
-78 c59 -18 73 -181 21 -233 -18 -18 -40 -26 -76 -30 -28 -2 -51 -1 -52 4 -1
5 -2 65 -3 133 -1 87 3 128 11 137 12 12 33 9 99 -11z"/>
<path d="M1802 1022 c-74 -24 -111 -99 -106 -214 2 -44 24 -99 48 -123 85 -85
236 -39 261 80 12 55 4 137 -16 179 -36 75 -108 105 -187 78z m95 -67 c61 -43
53 -221 -11 -245 -33 -12 -69 -2 -92 26 -42 51 -25 214 24 227 34 9 58 7 79
-8z"/>
<path d="M2165 1032 c-2 -2 -9 -5 -17 -6 -36 -6 -58 -19 -63 -37 -4 -10 -11
-19 -16 -19 -13 0 -11 -61 4 -89 11 -22 136 -95 146 -85 8 7 31 -26 31 -45 0
-50 -86 -62 -121 -16 -17 21 -22 22 -49 12 -37 -14 -38 -26 -2 -59 37 -36 75
-49 129 -44 86 8 134 77 105 149 -12 31 -26 42 -98 77 -71 35 -84 45 -84 66 0
42 79 53 100 14 10 -19 18 -19 58 -6 26 9 27 15 4 41 -27 32 -111 63 -127 47z"/>
<path d="M1348 1018 c0 -7 -2 -93 -3 -190 -1 -185 -2 -180 40 -180 8 0 19 0
23 1 5 0 8 37 7 81 -1 66 2 80 14 81 104 5 131 3 132 -11 0 -8 1 -46 2 -85 2
-63 4 -70 22 -70 49 -1 50 2 48 182 -1 92 -2 176 -2 186 -1 14 -8 17 -36 15
l-35 -2 3 -63 c4 -80 -7 -92 -82 -87 -30 2 -57 6 -60 10 -3 3 -7 31 -7 62 -2
83 -1 82 -34 82 -17 0 -31 -6 -32 -12z"/>
<path d="M2389 1028 c-1 -2 -3 -87 -3 -190 -2 -201 -1 -206 50 -188 17 7 19
17 19 79 -1 76 -3 73 60 73 65 -1 102 16 121 56 10 20 18 42 17 47 -12 101
-36 118 -170 122 -51 2 -94 2 -94 1z m163 -67 c17 -6 24 -18 26 -39 3 -43 -18
-60 -75 -58 l-47 1 -2 45 c-1 25 0 48 3 53 6 10 67 9 95 -2z"/>
<path d="M2727 1023 c-2 -5 -3 -91 -3 -192 l1 -185 28 1 c15 1 30 1 35 2 6 1
9 339 3 374 0 4 -14 7 -30 7 -17 0 -32 -3 -34 -7z"/>
<path d="M2859 1025 c-1 -3 -1 -14 -1 -25 0 -11 0 -24 1 -28 1 -4 21 -7 46 -7
24 1 46 -3 48 -9 2 -6 3 -76 3 -156 -1 -137 0 -145 19 -151 11 -3 28 -3 37 -1
16 4 18 20 17 154 -1 82 2 152 5 156 4 3 23 7 44 8 20 1 41 2 45 3 5 1 7 13 5
29 l-3 27 -132 2 c-73 1 -133 0 -134 -2z"/>
<path d="M3220 1012 c0 -10 -3 -22 -7 -26 -5 -4 -8 -11 -8 -14 -1 -10 -43
-150 -56 -187 -5 -16 -12 -40 -15 -52 -2 -12 -9 -35 -15 -49 -11 -30 0 -44 30
-39 9 2 19 4 23 4 3 1 9 14 13 30 9 43 26 52 92 49 58 -3 58 -3 67 -40 6 -25
16 -37 30 -40 29 -5 57 2 51 13 -7 10 -16 47 -17 67 -1 6 -6 12 -11 12 -6 0
-8 3 -4 6 3 3 1 18 -5 33 -5 14 -11 33 -13 41 -2 8 -11 40 -20 70 -9 30 -23
73 -29 95 -12 39 -14 40 -59 43 -40 2 -47 -1 -47 -16z m75 -142 c2 -8 7 -30
11 -47 l7 -33 -48 0 c-40 0 -46 3 -41 17 4 9 11 37 17 62 19 86 20 88 36 50 8
-19 16 -41 18 -49z"/>
<path d="M3474 837 l1 -191 105 -1 c58 -1 110 0 115 2 6 2 12 17 13 33 l2 29
-82 3 -83 3 0 155 0 155 -36 2 -35 2 0 -192z"/>
<path d="M1900 484 c0 -8 5 -12 10 -9 6 4 8 11 5 16 -9 14 -15 11 -15 -7z"/>
<path d="M2257 493 c-11 -10 -8 -113 3 -113 11 0 11 0 14 58 2 44 -5 67 -17
55z"/>
<path d="M3130 485 c0 -9 6 -12 15 -9 8 4 15 7 15 9 0 2 -7 5 -15 9 -9 3 -15
0 -15 -9z"/>
<path d="M3177 493 c-9 -17 -1 -107 10 -110 7 -3 10 7 9 27 -1 17 2 34 6 36 5
3 4 12 -2 19 -7 8 -9 19 -5 25 3 5 2 10 -4 10 -5 0 -12 -3 -14 -7z"/>
<path d="M1367 477 c-2 -6 -4 -30 -3 -52 1 -38 3 -40 34 -43 17 -2 32 1 32 7
0 5 -9 8 -20 6 -18 -4 -24 3 -17 23 1 4 5 6 9 5 3 -1 12 5 19 13 11 13 10 15
-6 12 -10 -1 -20 3 -22 10 -3 7 4 12 16 12 12 0 21 5 21 10 0 15 -57 12 -63
-3z"/>
<path d="M1833 476 c-7 -12 -8 -29 -3 -42 5 -12 6 -25 2 -29 -7 -7 17 -25 36
-25 6 0 12 5 12 11 0 5 -4 8 -9 5 -17 -11 -21 27 -5 45 15 17 15 19 1 19 -8 0
-17 8 -19 18 -3 15 -5 15 -15 -2z"/>
<path d="M2789 473 c0 -10 -1 -35 -2 -56 -2 -29 2 -37 13 -35 8 2 15 12 15 23
0 14 6 19 18 17 9 -2 17 3 17 11 0 8 -7 14 -16 13 -9 0 -19 5 -21 12 -3 7 5
12 22 12 15 0 24 4 20 10 -3 6 -19 10 -36 10 -21 0 -29 -5 -30 -17z"/>
<path d="M1580 460 c-8 -5 -17 -7 -20 -5 -13 8 -27 -31 -19 -53 9 -24 35 -28
59 -11 12 9 11 10 -7 6 -16 -4 -24 1 -29 15 -6 20 12 42 27 32 4 -2 10 0 13 5
9 14 -8 21 -24 11z"/>
<path d="M1636 454 c-36 -26 -1 -91 42 -77 20 7 14 22 -7 18 -11 -2 -22 3 -25
11 -4 9 -2 12 5 8 8 -4 9 1 4 16 -5 16 -4 21 6 18 8 -3 13 -12 11 -22 -3 -17
13 -22 22 -7 18 29 -28 57 -58 35z"/>
<path d="M1729 466 c0 -1 -2 -27 -4 -58 -3 -55 11 -80 22 -40 3 14 11 18 29
14 25 -5 26 -3 29 40 1 20 -4 29 -19 35 -18 6 -54 11 -57 9z m52 -30 c11 -15
-2 -45 -17 -39 -17 6 -19 54 -1 51 6 -2 15 -7 18 -12z"/>
<path d="M1973 459 c-28 -10 -35 -23 -27 -54 11 -45 84 -29 84 20 0 27 -29 44
-57 34z m31 -26 c3 -7 3 -20 0 -28 -9 -22 -44 -1 -37 23 5 22 30 25 37 5z"/>
<path d="M2159 453 c-11 -12 -8 -13 16 -7 20 5 26 3 23 -6 -2 -7 -12 -14 -22
-16 -45 -6 -30 -44 17 -42 31 1 33 3 32 36 0 30 -4 37 -27 43 -19 5 -31 3 -39
-8z m36 -53 c-3 -5 -10 -10 -16 -10 -5 0 -9 5 -9 10 0 6 7 10 16 10 8 0 12 -4
9 -10z"/>
<path d="M2453 462 c-13 -2 -23 -7 -23 -12 0 -5 9 -7 20 -5 29 6 24 -14 -6
-21 -38 -10 -27 -38 17 -42 34 -3 36 -2 36 30 0 40 -13 54 -44 50z m17 -57 c0
-8 -4 -15 -10 -15 -5 0 -10 7 -10 15 0 8 5 15 10 15 6 0 10 -7 10 -15z"/>
<path d="M2543 462 c-19 -3 -22 -9 -20 -39 1 -20 8 -38 15 -41 9 -3 11 4 8 23
-4 19 0 28 14 33 25 9 11 28 -17 24z"/>
<path d="M2620 462 c-35 -13 -44 -55 -16 -74 14 -10 62 -10 52 0 -7 7 -11 8
-37 11 -5 0 -8 5 -4 10 3 6 14 8 25 6 11 -2 22 1 26 7 9 14 -28 47 -46 40z
m25 -22 c3 -5 -3 -10 -15 -10 -12 0 -18 5 -15 10 3 6 10 10 15 10 5 0 12 -4
15 -10z"/>
<path d="M2892 462 c-12 -2 -20 -7 -17 -12 3 -5 12 -7 19 -4 8 3 17 1 21 -5 3
-6 -1 -11 -9 -11 -17 0 -50 -30 -41 -38 3 -3 21 -7 39 -8 31 -3 34 0 38 27 5
34 -16 57 -50 51z m22 -62 c-22 -9 -29 -6 -20 9 4 6 14 7 23 4 15 -6 14 -7 -3
-13z"/>
<path d="M3379 457 c-24 -13 -32 -42 -15 -64 10 -15 70 -18 61 -4 -3 6 -14 8
-24 6 -14 -2 -18 3 -17 23 1 19 6 27 19 26 9 -1 17 2 17 7 0 15 -16 18 -41 6z"/>
<path d="M3448 452 c-11 -13 -10 -14 9 -8 35 11 36 -11 0 -24 -17 -7 -26 -14
-19 -17 6 -3 10 -9 6 -14 -3 -5 3 -10 13 -10 45 -3 64 9 58 40 -2 9 -4 21 -4
27 -1 19 -49 23 -63 6z m42 -52 c0 -5 -4 -10 -9 -10 -6 0 -13 5 -16 10 -3 6 1
10 9 10 9 0 16 -4 16 -10z"/>
<path d="M3544 462 c3 -2 1 -13 -4 -23 -7 -11 -7 -20 0 -24 5 -3 6 -13 3 -22
-4 -11 -2 -14 8 -11 8 3 14 15 14 28 0 13 6 25 13 28 20 6 14 19 -13 25 -14 2
-23 2 -21 -1z"/>
<path d="M1450 451 c0 -5 6 -11 13 -14 9 -3 9 -9 -1 -27 -19 -32 -6 -37 24 -9
35 33 47 56 28 56 -7 0 -14 -4 -14 -9 0 -5 -9 -4 -19 2 -24 12 -31 13 -31 1z"/>
<path d="M1895 434 c0 -13 3 -24 7 -24 4 0 5 -7 2 -15 -4 -8 -2 -15 4 -15 12
0 21 41 13 61 -10 23 -26 19 -26 -7z"/>
<path d="M2050 419 c0 -22 5 -39 10 -39 10 0 14 13 11 37 -1 7 8 17 19 23 11
6 20 7 19 3 -4 -26 3 -63 12 -63 6 0 9 16 7 38 -3 35 -5 37 -40 38 -38 1 -38
1 -38 -37z"/>
<path d="M2353 453 c-7 -2 -13 -18 -13 -34 0 -22 5 -30 26 -35 15 -4 30 -2 37
6 9 10 9 11 -1 6 -7 -4 -19 -2 -27 4 -19 16 -2 52 20 44 8 -4 15 -1 15 5 0 11
-34 14 -57 4z"/>
<path d="M2967 453 c-2 -1 -1 -18 1 -38 5 -42 19 -46 24 -7 4 34 33 37 33 3 0
-13 6 -26 12 -28 9 -3 12 5 9 26 -2 17 1 31 5 31 5 0 12 0 17 0 4 0 8 -8 8
-18 1 -9 2 -23 3 -29 1 -7 5 -13 10 -13 12 0 23 44 11 48 -5 2 -6 10 -3 18 4
11 -7 14 -61 12 -37 -1 -68 -3 -69 -5z"/>
<path d="M3125 423 c2 -52 25 -56 25 -4 0 27 -4 41 -13 41 -8 0 -12 -13 -12
-37z"/>
<path d="M3225 427 c4 -17 11 -33 15 -35 4 -2 5 -12 2 -24 -3 -15 -1 -19 9
-16 8 3 14 9 15 14 0 5 8 26 17 46 20 44 20 48 7 48 -6 0 -16 -12 -22 -27 -11
-26 -12 -27 -15 -6 -2 12 -11 24 -19 27 -13 5 -14 0 -9 -27z"/>
<path d="M3614 448 c-4 -6 -8 -22 -10 -34 -2 -20 4 -25 33 -30 19 -4 39 -2 44
3 6 6 -1 9 -18 9 -14 -1 -28 5 -31 13 -3 10 0 12 12 8 28 -11 47 2 35 24 -11
21 -54 26 -65 7z m41 -8 c3 -5 -1 -10 -10 -10 -9 0 -13 5 -10 10 3 6 8 10 10
10 2 0 7 -4 10 -10z"/>
<path d="M1495 400 c-3 -5 -4 -10 -1 -10 2 0 12 -3 20 -6 12 -5 15 -2 10 10
-7 18 -20 21 -29 6z"/>
<path d="M2690 395 c0 -8 7 -15 16 -15 14 0 14 3 4 15 -7 8 -14 15 -16 15 -2
0 -4 -7 -4 -15z"/>
<path d="M3705 390 c3 -5 10 -10 16 -10 5 0 9 5 9 10 0 6 -7 10 -16 10 -8 0
-12 -4 -9 -10z"/>
</g>
</svg>
